<svg xmlns="http://www.w3.org/2000/svg" viewBox="0 0 122.58 61.6"><defs><style>.cls-1{fill:#e7ab55;}</style></defs><title>Asset 1</title><g id="Layer_2" data-name="Layer 2"><g id="Layer_1-2" data-name="Layer 1"><path class="cls-1" d="M26.6,50.44c0,7.38-4.93,10.85-10.54,10.85H.31V39.59H16.06C21.67,39.59,26.6,43.06,26.6,50.44Zm-5.58,0c0-5.27-2.85-6.17-7.07-6.17H5.89V56.61H14C18.17,56.61,21,55.71,21,50.44Z"/><path class="cls-1" d="M52.58,52.08v9.21H47.25V59a24.56,24.56,0,0,1-11.1,2.57c-5.12,0-8.31-1.64-8.31-5.77,0-4.74,5.21-6.23,11-6.23a26.74,26.74,0,0,1,8.4,1.3c0-3.47-4.47-3.75-7-3.75a30.45,30.45,0,0,0-9,1.34l-1.89-3.88a35.76,35.76,0,0,1,11.19-1.89C48.18,42.72,52.52,45.17,52.58,52.08Zm-5.33,2.11a25.19,25.19,0,0,0-7.75-1.12c-4,0-6.36.69-6.36,2.55s1.77,2.07,4.53,2.07a27.46,27.46,0,0,0,9.58-2.07Z"/><path class="cls-1" d="M80.36,51.18l-.07,10.11H75V53.2c0-3.88-1.3-5.89-5.67-5.89-3.57,0-7.41,1.83-9.06,3.75V61.29h-5.3V43h5.3v3.19a17.07,17.07,0,0,1,10.64-3.5C75.74,42.72,80.29,44.46,80.36,51.18Z"/><path class="cls-1" d="M88.1,36.49v4.62H82.8V36.49Zm0,6.54V61.29H82.8V43Z"/><path class="cls-1" d="M109.68,54.75H115c-1.21,4.65-5.73,6.85-12.49,6.85-6.95,0-12.34-2.73-12.34-9.42s5.24-9.46,12.65-9.46c6.94,0,12.49,2.39,12.49,10.7H95.54c.59,2.91,3.38,3.87,6.92,3.87S108.35,56.61,109.68,54.75ZM95.73,50h13.86c-.9-2.58-3.5-3.29-6.85-3.29C99.11,46.75,96.57,47.46,95.73,50Z"/><path class="cls-1" d="M122.58,36.49v24.8h-5.31V36.49Z"/><path class="cls-1" d="M26.67,7.78H16.12v17H10.54v-17H0V3.1H26.67Z"/><path class="cls-1" d="M25,15.69C25,9,30.07,6.23,37.64,6.23S50.29,9,50.29,15.69s-5.12,9.43-12.65,9.43S25,22.39,25,15.69Zm20,0c0-3.81-2.41-5-7.31-5s-7.35,1.21-7.35,5,2.42,5,7.35,5S45,19.47,45,15.69Z"/><path class="cls-1" d="M57.6,0V24.8H52.3V0Z"/><path class="cls-1" d="M84.36,15.6v9.2H79V22.54a24.53,24.53,0,0,1-11.1,2.58c-5.11,0-8.31-1.65-8.31-5.77,0-4.75,5.21-6.23,11-6.23a26.41,26.41,0,0,1,8.4,1.3c0-3.47-4.46-3.75-6.94-3.75A30.44,30.44,0,0,0,63,12L61.13,8.12a35.77,35.77,0,0,1,11.2-1.89C80,6.23,84.29,8.68,84.36,15.6ZM79,17.7a25.55,25.55,0,0,0-7.75-1.11c-4,0-6.35.68-6.35,2.54s1.76,2.08,4.52,2.08A27.21,27.21,0,0,0,79,19.13Z"/><path class="cls-1" d="M112.13,14.7l-.06,10.1h-5.33V16.71c0-3.87-1.31-5.89-5.68-5.89-3.56,0-7.41,1.83-9,3.75V24.8h-5.3V6.54H92v3.2a17,17,0,0,1,10.63-3.51C107.51,6.23,112.07,8,112.13,14.7Z"/><path class="cls-1" d="M119.88,0V4.62h-5.3V0Zm0,6.54V24.8h-5.3V6.54Z"/></g></g></svg>